<svg width="183" height="113" viewBox="0 0 183 113" fill="none" xmlns="http://www.w3.org/2000/svg">
<rect x="0.5" y="28.9957" width="151" height="70.7304" rx="2.5" stroke="#027F8C"/>
<path d="M81.6753 70.5085L84.8522 69.0037H85.0194V71.5452C85.0194 72.9051 85.4207 74.0477 86.2233 74.9729C87.2154 76.1211 88.514 76.6952 90.1192 76.6952C91.7133 76.6952 93.0119 76.1211 94.0151 74.9729C94.8066 74.07 95.2023 72.5261 95.2023 70.3413C95.2023 68.6247 94.879 67.3873 94.2325 66.6293C93.3407 65.5815 91.9696 65.0576 90.1192 65.0576C87.9567 65.0576 86.201 64.4556 84.8522 63.2518C83.7375 62.2485 83.1802 60.8328 83.1802 59.0047C83.1802 56.9425 83.8713 55.3485 85.2535 54.2226C86.5689 53.1525 88.1908 52.6174 90.1192 52.6174C92.0477 52.6174 93.6696 53.1525 94.9849 54.2226C96.3672 55.3485 97.0583 56.8923 97.0583 58.8542L93.8814 60.3591H93.7142V58.2188C93.7142 56.9481 93.3519 56.0006 92.6273 55.3763C91.9251 54.7632 91.089 54.4567 90.1192 54.4567C89.038 54.4567 88.1685 54.7967 87.5108 55.4767C86.8531 56.1566 86.5243 57.3382 86.5243 59.0214C86.5243 60.5151 86.7751 61.5407 87.2767 62.098C87.9455 62.8449 88.893 63.2183 90.1192 63.2183C92.9283 63.2183 95.0184 63.8481 96.3895 65.1077C97.8274 66.4343 98.5464 68.1676 98.5464 70.3079C98.5464 72.5819 97.7996 74.5159 96.3059 76.1099C94.7787 77.7263 92.7165 78.5344 90.1192 78.5344C87.522 78.5344 85.4597 77.7263 83.9326 76.1099C82.4277 74.5159 81.6753 72.6488 81.6753 70.5085ZM111.382 77.6427L109.264 78.6459H109.153V77.4755C108.558 78.1071 107.76 78.423 106.756 78.423C105.367 78.423 104.285 78.0031 103.512 77.1633C102.74 76.3236 102.353 75.3315 102.353 74.1871C102.353 72.998 102.773 71.9874 103.613 71.155C104.423 70.3525 105.471 69.9512 106.756 69.9512C107.67 69.9512 108.469 70.267 109.153 70.8987C109.153 69.5833 108.923 68.5949 108.462 67.9335C108.001 67.2721 107.433 66.9414 106.756 66.9414H104.048V66.83L104.571 65.7153H106.756C108.057 65.7153 109.138 66.1351 110 66.9749C110.922 67.8741 111.382 68.9405 111.382 70.1741V77.6427ZM104.538 74.1871C104.538 75.3464 104.739 76.1415 105.14 76.5725C105.526 76.9887 106.069 77.1968 106.767 77.1968C107.511 77.1968 108.075 76.985 108.462 76.5614C108.885 76.1006 109.097 75.2906 109.097 74.1313C109.097 73.0463 108.871 72.2735 108.417 71.8127C107.971 71.3891 107.418 71.1773 106.756 71.1773C106.065 71.1773 105.523 71.3966 105.129 71.835C104.735 72.2735 104.538 73.0575 104.538 74.1871ZM123.198 77.6427L121.08 78.6459H120.969V77.4755C120.374 78.1071 119.575 78.423 118.572 78.423C117.183 78.423 116.101 78.0031 115.328 77.1633C114.556 76.3236 114.169 75.3315 114.169 74.1871C114.169 72.998 114.589 71.9874 115.429 71.155C116.239 70.3525 117.287 69.9512 118.572 69.9512C119.486 69.9512 120.285 70.267 120.969 70.8987C120.969 69.5833 120.738 68.5949 120.278 67.9335C119.817 67.2721 119.248 66.9414 118.572 66.9414H115.863V66.83L116.387 65.7153H118.572C119.873 65.7153 120.954 66.1351 121.816 66.9749C122.737 67.8741 123.198 68.9405 123.198 70.1741V77.6427ZM116.354 74.1871C116.354 75.3464 116.555 76.1415 116.956 76.5725C117.342 76.9887 117.885 77.1968 118.583 77.1968C119.326 77.1968 119.891 76.985 120.278 76.5614C120.701 76.1006 120.913 75.2906 120.913 74.1313C120.913 73.0463 120.686 72.2735 120.233 71.8127C119.787 71.3891 119.234 71.1773 118.572 71.1773C117.881 71.1773 117.339 71.3966 116.945 71.835C116.551 72.2735 116.354 73.0575 116.354 74.1871ZM126.542 78.6459V70.1741C126.542 68.9479 127.003 67.8815 127.925 66.9749C128.787 66.1351 129.868 65.7153 131.168 65.7153H132.673V65.8267L132.138 66.9414H131.168C130.5 66.9414 129.931 67.1421 129.463 67.5434C129.002 67.9373 128.772 68.5615 128.772 69.4161V77.6427L126.654 78.6459H126.542ZM143.04 77.6427L140.922 78.6459H140.811V77.4755C140.216 78.1071 139.417 78.423 138.414 78.423C137.024 78.423 135.943 78.0031 135.17 77.1633C134.397 76.3236 134.011 75.3315 134.011 74.1871C134.011 72.998 134.431 71.9874 135.271 71.155C136.081 70.3525 137.128 69.9512 138.414 69.9512C139.328 69.9512 140.127 70.267 140.811 70.8987C140.811 69.5833 140.58 68.5949 140.12 67.9335C139.659 67.2721 139.09 66.9414 138.414 66.9414H135.705V66.83L136.229 65.7153H138.414C139.715 65.7153 140.796 66.1351 141.658 66.9749C142.579 67.8741 143.04 68.9405 143.04 70.1741V77.6427ZM136.196 74.1871C136.196 75.3464 136.396 76.1415 136.798 76.5725C137.184 76.9887 137.727 77.1968 138.425 77.1968C139.168 77.1968 139.733 76.985 140.12 76.5614C140.543 76.1006 140.755 75.2906 140.755 74.1313C140.755 73.0463 140.528 72.2735 140.075 71.8127C139.629 71.3891 139.075 71.1773 138.414 71.1773C137.723 71.1773 137.18 71.3966 136.787 71.835C136.393 72.2735 136.196 73.0575 136.196 74.1871Z" fill="black"/>
<path d="M14.3441 67.2V42.7879L17.5211 41.283H17.6883V65.3607H29.1419V65.5279L28.356 67.2H14.3441ZM40.1497 62.2618V62.9641C40.1497 64.1903 39.6889 65.2567 38.7674 66.1633C37.9054 67.0031 36.8241 67.423 35.5236 67.423C34.238 67.423 33.1567 67.0031 32.2798 66.1633C31.3583 65.2716 30.8976 64.2052 30.8976 62.9641V59.1741C30.8976 57.9405 31.3583 56.8741 32.2798 55.9749C33.1419 55.1351 34.2231 54.7153 35.5236 54.7153C36.7944 54.7153 37.8757 55.1351 38.7674 55.9749C39.6889 56.8444 40.1497 57.803 40.1497 58.8508L33.1939 64.469C33.2979 64.952 33.506 65.3273 33.8181 65.5948C34.2863 65.9961 34.8548 66.1968 35.5236 66.1968C36.1924 66.1968 36.7572 65.9961 37.218 65.5948C37.6862 65.1935 37.9202 64.417 37.9202 63.2651L40.0382 62.2618H40.1497ZM33.127 62.7523L37.9202 58.862V58.4161C37.9202 57.5689 37.6899 56.9447 37.2291 56.5434C36.7609 56.1421 36.1924 55.9414 35.5236 55.9414C34.8622 55.9414 34.2937 56.1421 33.8181 56.5434C33.3574 56.9298 33.127 57.5541 33.127 58.4161V62.7523ZM46.2806 63.7221C46.2806 64.5767 46.5109 65.2047 46.9717 65.606C47.4399 65.9998 48.0084 66.1968 48.6772 66.1968C49.346 66.1968 49.9108 65.9998 50.3715 65.606C50.8397 65.2047 51.0738 64.5767 51.0738 63.7221V58.4161C51.0738 57.5615 50.8397 56.9373 50.3715 56.5434C49.9108 56.1421 49.346 55.9414 48.6772 55.9414C48.0084 55.9414 47.4399 56.1421 46.9717 56.5434C46.5109 56.9373 46.2806 57.5615 46.2806 58.4161V63.7221ZM53.3032 59.1741V62.9641C53.3032 64.1903 52.8425 65.2567 51.921 66.1633C51.059 67.0031 49.9777 67.423 48.6772 67.423C47.6962 67.423 46.8974 67.1071 46.2806 66.4755V71.213L44.1626 72.2162H44.0511V59.1741C44.0511 57.9479 44.5119 56.8815 45.4334 55.9749C46.2954 55.1351 47.3767 54.7153 48.6772 54.7153C49.9628 54.7153 51.0441 55.1351 51.921 55.9749C52.8425 56.8667 53.3032 57.9331 53.3032 59.1741ZM59.4341 63.7221C59.4341 64.5767 59.6645 65.2047 60.1253 65.606C60.5934 65.9998 61.1619 66.1968 61.8308 66.1968C62.4996 66.1968 63.0644 65.9998 63.5251 65.606C63.9933 65.2047 64.2274 64.5767 64.2274 63.7221V58.4161C64.2274 57.5615 63.9933 56.9373 63.5251 56.5434C63.0644 56.1421 62.4996 55.9414 61.8308 55.9414C61.1619 55.9414 60.5934 56.1421 60.1253 56.5434C59.6645 56.9373 59.4341 57.5615 59.4341 58.4161V63.7221ZM66.4568 59.1741V62.9641C66.4568 64.1903 65.9961 65.2567 65.0746 66.1633C64.2125 67.0031 63.1313 67.423 61.8308 67.423C60.8498 67.423 60.0509 67.1071 59.4341 66.4755V71.213L57.3162 72.2162H57.2047V59.1741C57.2047 57.9479 57.6655 56.8815 58.587 55.9749C59.449 55.1351 60.5303 54.7153 61.8308 54.7153C63.1164 54.7153 64.1977 55.1351 65.0746 55.9749C65.9961 56.8667 66.4568 57.9331 66.4568 59.1741ZM70.5255 52.4747C70.2654 52.2072 70.1354 51.8876 70.1354 51.516C70.1354 51.137 70.2654 50.8138 70.5255 50.5462C70.7856 50.2787 71.1014 50.145 71.473 50.145C71.8446 50.145 72.1604 50.2787 72.4205 50.5462C72.6806 50.8138 72.8107 51.137 72.8107 51.516C72.8107 51.8876 72.6806 52.2072 72.4205 52.4747C72.1604 52.7422 71.8446 52.876 71.473 52.876C71.1014 52.876 70.7856 52.7422 70.5255 52.4747ZM70.3583 67.6459V55.4956L72.4762 54.4923H72.5877V66.6427L70.4698 67.6459H70.3583ZM13.2294 87.6459V70.9252L15.3474 69.922H15.4588V75.6628C16.0162 75.0311 16.8151 74.7153 17.8555 74.7153C19.1411 74.7153 20.2224 75.1351 21.0993 75.9749C22.0208 76.8667 22.4815 77.9331 22.4815 79.1741V86.6427L20.3636 87.6459H20.2521V78.4161C20.2521 77.5615 20.018 76.9373 19.5498 76.5434C19.0891 76.1421 18.5243 75.9414 17.8555 75.9414C17.1866 75.9414 16.6181 76.1421 16.15 76.5434C15.6892 76.9373 15.4588 77.5615 15.4588 78.4161V86.6427L13.3409 87.6459H13.2294ZM34.2974 86.6427L32.1795 87.6459H32.068V86.4755C31.4735 87.1071 30.6746 87.423 29.6714 87.423C28.2817 87.423 27.2004 87.0031 26.4276 86.1633C25.6547 85.3236 25.2683 84.3315 25.2683 83.1871C25.2683 81.998 25.6882 80.9874 26.5279 80.155C27.3379 79.3525 28.3858 78.9512 29.6714 78.9512C30.5855 78.9512 31.3843 79.267 32.068 79.8987C32.068 78.5833 31.8376 77.5949 31.3769 76.9335C30.9161 76.2721 30.3476 75.9414 29.6714 75.9414H26.9626V75.83L27.4866 74.7153H29.6714C30.9719 74.7153 32.0532 75.1351 32.9152 75.9749C33.8367 76.8741 34.2974 77.9405 34.2974 79.1741V86.6427ZM27.4531 83.1871C27.4531 84.3464 27.6538 85.1415 28.0551 85.5725C28.4415 85.9887 28.984 86.1968 29.6825 86.1968C30.4257 86.1968 30.9905 85.985 31.3769 85.5614C31.8005 85.1006 32.0123 84.2906 32.0123 83.1313C32.0123 82.0463 31.7856 81.2735 31.3323 80.8127C30.8864 80.3891 30.3328 80.1773 29.6714 80.1773C28.9803 80.1773 28.4378 80.3966 28.0439 80.835C27.65 81.2735 27.4531 82.0575 27.4531 83.1871ZM38.1989 87.6459V70.9252L40.3169 69.922H40.4283V86.6427L38.3104 87.6459H38.1989ZM44.3298 87.6459V79.1741C44.3298 77.9479 44.7906 76.8815 45.7121 75.9749C46.5741 75.1351 47.6554 74.7153 48.9559 74.7153C50.1375 74.7153 51.1593 75.1463 52.0213 76.0083C52.1848 76.1718 52.3334 76.365 52.4672 76.588C52.601 76.3725 52.7496 76.183 52.9131 76.0195C53.842 75.15 54.8638 74.7153 55.9785 74.7153C57.2642 74.7153 58.3454 75.1351 59.2223 75.9749C60.1438 76.8667 60.6046 77.9331 60.6046 79.1741V86.6427L58.4866 87.6459H58.3752V78.4161C58.3752 77.5615 58.1411 76.9373 57.6729 76.5434C57.2122 76.1421 56.6474 75.9414 55.9785 75.9414C55.3097 75.9414 54.7412 76.1421 54.273 76.5434C53.8123 76.9373 53.5819 77.5615 53.5819 78.4161V86.6427L51.464 87.6459H51.3525V78.4161C51.3525 77.5615 51.1184 76.9373 50.6502 76.5434C50.1895 76.1421 49.6247 75.9414 48.9559 75.9414C48.287 75.9414 47.7185 76.1421 47.2504 76.5434C46.7896 76.9373 46.5592 77.5615 46.5592 78.4161V86.6427L44.4413 87.6459H44.3298ZM73.2008 82.2618V82.9641C73.2008 84.1903 72.7401 85.2567 71.8186 86.1633C70.9565 87.0031 69.8753 87.423 68.5748 87.423C67.2891 87.423 66.2079 87.0031 65.331 86.1633C64.4095 85.2716 63.9487 84.2052 63.9487 82.9641V79.1741C63.9487 77.9405 64.4095 76.8741 65.331 75.9749C66.193 75.1351 67.2743 74.7153 68.5748 74.7153C69.8455 74.7153 70.9268 75.1351 71.8186 75.9749C72.7401 76.8444 73.2008 77.803 73.2008 78.8508L66.245 84.469C66.3491 84.952 66.5571 85.3273 66.8693 85.5948C67.3374 85.9961 67.9059 86.1968 68.5748 86.1968C69.2436 86.1968 69.8084 85.9961 70.2691 85.5948C70.7373 85.1935 70.9714 84.417 70.9714 83.2651L73.0893 82.2618H73.2008ZM66.1781 82.7523L70.9714 78.862V78.4161C70.9714 77.5689 70.741 76.9447 70.2803 76.5434C69.8121 76.1421 69.2436 75.9414 68.5748 75.9414C67.9134 75.9414 67.3449 76.1421 66.8693 76.5434C66.4085 76.9298 66.1781 77.5541 66.1781 78.4161V82.7523Z" fill="black"/>
<g clip-path="url(#clip0_126:26)">
<rect x="56.4812" y="54.0197" width="37.3238" height="36.0667" rx="18.0334" transform="rotate(-100 56.4812 54.0197)" fill="#F4530D"/>
<rect x="59.2845" y="20.9095" width="5.01284" height="5.51412" rx="2.50642" transform="rotate(-100 59.2845 20.9095)" fill="black"/>
<rect x="75.3255" y="23.4159" width="5.01284" height="5.51412" rx="2.50642" transform="rotate(-100 75.3255 23.4159)" fill="black"/>
<rect x="82.4513" y="37.4468" width="5.01284" height="5.51412" rx="2.50642" transform="rotate(-100 82.4513 37.4468)" fill="black"/>
<rect x="74.5631" y="33.7046" width="3.50899" height="4.01027" rx="1.75449" transform="rotate(-100 74.5631 33.7046)" fill="black"/>
<rect x="65.0387" y="33.2033" width="3.50899" height="4.01027" rx="1.75449" transform="rotate(-100 65.0387 33.2033)" fill="black"/>
<rect x="56.2768" y="32.9403" width="5.01284" height="5.51412" rx="2.50642" transform="rotate(-100 56.2768 32.9403)" fill="black"/>
<path d="M70.3446 13.5115H71.9487L69.5212 23.888L71.9487 22.4716V32.5244L70.3446 54.1154L70.8793 25.3044L67.9384 26.4848L70.3446 13.5115Z" fill="black"/>
<ellipse cx="71.1967" cy="47.0975" rx="11.7802" ry="7.01797" fill="black"/>
<path d="M66.1268 32.2518C61.6849 35.2492 62.5188 40.0203 63.4909 42.0312" stroke="black" stroke-width="0.501284"/>
<path d="M75.5319 31.7927C80.1089 34.49 78.6027 39.7423 77.2775 42.0312" stroke="black" stroke-width="0.501284"/>
<rect x="65.4077" y="47.9738" width="5.01284" height="5.51412" rx="2.50642" transform="rotate(-100 65.4077 47.9738)" fill="white"/>
<rect x="72.4257" y="47.9738" width="5.01284" height="5.51412" rx="2.50642" transform="rotate(-100 72.4257 47.9738)" fill="white"/>
<rect x="74.4638" y="47.3064" width="2.31615" height="2.53079" rx="1.15807" transform="rotate(-100 74.4638 47.3064)" fill="black"/>
<rect x="67.4458" y="47.3064" width="2.31615" height="2.53079" rx="1.15807" transform="rotate(-100 67.4458 47.3064)" fill="black"/>
</g>
<defs>
<clipPath id="clip0_126:26">
<rect x="16" width="91" height="54.0435" rx="3" fill="white"/>
</clipPath>
</defs>
</svg>
