<svg width="154" height="106" viewBox="0 0 154 106" fill="none" xmlns="http://www.w3.org/2000/svg">
<path d="M0 5C0 2.23858 2.23858 0 5 0H149C151.761 0 154 2.23858 154 5V101C154 103.761 151.761 106 149 106H5C2.23858 106 0 103.761 0 101V5Z" fill="#027F8C"/>
<path d="M27.4531 41.9492C27.4453 41.8828 27.4395 41.8145 27.4355 41.7441C27.4316 41.6738 27.4297 41.6016 27.4297 41.5273H27.2129C27.0566 41.5273 26.8711 41.5391 26.6562 41.5625C26.4453 41.5859 26.2266 41.623 26 41.6738C25.7734 41.7246 25.5488 41.793 25.3262 41.8789C25.1035 41.9609 24.9043 42.0625 24.7285 42.1836C24.5527 42.3008 24.4102 42.4395 24.3008 42.5996C24.1953 42.7598 24.1426 42.9434 24.1426 43.1504C24.1426 43.2598 24.168 43.3535 24.2188 43.4316C24.2734 43.5098 24.3398 43.5742 24.418 43.625C24.5 43.6719 24.5898 43.707 24.6875 43.7305C24.7852 43.75 24.8789 43.7598 24.9688 43.7598C25.2461 43.7598 25.5078 43.707 25.7539 43.6016C26.0039 43.4922 26.2344 43.3516 26.4453 43.1797C26.6562 43.0039 26.8457 42.8086 27.0137 42.5938C27.1816 42.3789 27.3281 42.1641 27.4531 41.9492ZM30.2598 43.9766H30.2363C30.1699 43.9688 30.1016 43.9648 30.0312 43.9648C29.9609 43.9648 29.8926 43.9648 29.8262 43.9648C29.459 43.9648 29.1055 43.9883 28.7656 44.0352C28.4297 44.082 28.0918 44.1543 27.752 44.252C27.7402 44.252 27.7285 44.2539 27.7168 44.2578C27.7051 44.2617 27.6895 44.2637 27.6699 44.2637C27.5801 44.2637 27.5059 44.2285 27.4473 44.1582C27.3926 44.0918 27.3652 44.0234 27.3652 43.9531V43.9062C27.3652 43.8984 27.375 43.8203 27.3945 43.6719C27.4141 43.5195 27.4336 43.3086 27.4531 43.0391C27.2852 43.2266 27.1055 43.4023 26.9141 43.5664C26.7266 43.7266 26.5273 43.8672 26.3164 43.9883C26.1094 44.1055 25.8945 44.1973 25.6719 44.2637C25.4492 44.334 25.2188 44.3691 24.9805 44.3691C24.793 44.3691 24.6113 44.3398 24.4355 44.2812C24.2598 44.2266 24.1035 44.1465 23.9668 44.041C23.834 43.9355 23.7266 43.8086 23.6445 43.6602C23.5664 43.5078 23.5273 43.3379 23.5273 43.1504C23.5273 42.8574 23.5898 42.5996 23.7148 42.377C23.8438 42.1543 24.0117 41.9609 24.2188 41.7969C24.4258 41.6289 24.6602 41.4902 24.9219 41.3809C25.1875 41.2676 25.457 41.1777 25.7305 41.1113C26.0039 41.041 26.2695 40.9922 26.5273 40.9648C26.7852 40.9336 27.0137 40.918 27.2129 40.918H27.3535C27.3535 40.6797 27.3105 40.4473 27.2246 40.2207C27.1426 39.9941 27.0254 39.793 26.873 39.6172C26.7246 39.4414 26.5469 39.3008 26.3398 39.1953C26.1328 39.0859 25.9043 39.0312 25.6543 39.0312C25.4707 39.0312 25.291 39.084 25.1152 39.1895C24.9395 39.291 24.7832 39.4219 24.6465 39.582C24.5098 39.7422 24.3984 39.9219 24.3125 40.1211C24.2305 40.3203 24.1895 40.5137 24.1895 40.7012C24.1895 40.7793 24.1562 40.8457 24.0898 40.9004C24.0273 40.9512 23.957 40.9766 23.8789 40.9766C23.793 40.9766 23.7188 40.9453 23.6562 40.8828C23.5938 40.8164 23.5625 40.7441 23.5625 40.666C23.5625 40.4785 23.5957 40.2832 23.6621 40.0801C23.7285 39.873 23.8242 39.6719 23.9492 39.4766C24.0781 39.2773 24.2324 39.0898 24.4121 38.9141C24.5957 38.7383 24.8027 38.584 25.0332 38.4512C25.2676 38.3145 25.5234 38.207 25.8008 38.1289C26.0781 38.0508 26.373 38.0117 26.6855 38.0117C27.123 38.0117 27.4961 38.0801 27.8047 38.2168C28.1172 38.3535 28.377 38.5391 28.584 38.7734C28.7949 39.0078 28.9609 39.2793 29.082 39.5879C29.2031 39.8965 29.2949 40.2227 29.3574 40.5664C29.4199 40.9102 29.459 41.2598 29.4746 41.6152C29.4941 41.9707 29.5039 42.3105 29.5039 42.6348C29.5039 42.7988 29.502 42.9395 29.498 43.0566C29.4941 43.1738 29.4922 43.2715 29.4922 43.3496C29.5508 43.3496 29.6094 43.3477 29.668 43.3438C29.7305 43.3398 29.791 43.3379 29.8496 43.3379C29.916 43.3379 29.9844 43.3398 30.0547 43.3438C30.1289 43.3477 30.2012 43.3496 30.2715 43.3496C30.3574 43.3574 30.4258 43.3906 30.4766 43.4492C30.5312 43.5078 30.5586 43.5801 30.5586 43.666C30.5586 43.748 30.5293 43.8203 30.4707 43.8828C30.416 43.9453 30.3457 43.9766 30.2598 43.9766ZM27.4531 57.9492C27.4453 57.8828 27.4395 57.8145 27.4355 57.7441C27.4316 57.6738 27.4297 57.6016 27.4297 57.5273H27.2129C27.0566 57.5273 26.8711 57.5391 26.6562 57.5625C26.4453 57.5859 26.2266 57.623 26 57.6738C25.7734 57.7246 25.5488 57.793 25.3262 57.8789C25.1035 57.9609 24.9043 58.0625 24.7285 58.1836C24.5527 58.3008 24.4102 58.4395 24.3008 58.5996C24.1953 58.7598 24.1426 58.9434 24.1426 59.1504C24.1426 59.2598 24.168 59.3535 24.2188 59.4316C24.2734 59.5098 24.3398 59.5742 24.418 59.625C24.5 59.6719 24.5898 59.707 24.6875 59.7305C24.7852 59.75 24.8789 59.7598 24.9688 59.7598C25.2461 59.7598 25.5078 59.707 25.7539 59.6016C26.0039 59.4922 26.2344 59.3516 26.4453 59.1797C26.6562 59.0039 26.8457 58.8086 27.0137 58.5938C27.1816 58.3789 27.3281 58.1641 27.4531 57.9492ZM30.2598 59.9766H30.2363C30.1699 59.9688 30.1016 59.9648 30.0312 59.9648C29.9609 59.9648 29.8926 59.9648 29.8262 59.9648C29.459 59.9648 29.1055 59.9883 28.7656 60.0352C28.4297 60.082 28.0918 60.1543 27.752 60.252C27.7402 60.252 27.7285 60.2539 27.7168 60.2578C27.7051 60.2617 27.6895 60.2637 27.6699 60.2637C27.5801 60.2637 27.5059 60.2285 27.4473 60.1582C27.3926 60.0918 27.3652 60.0234 27.3652 59.9531V59.9062C27.3652 59.8984 27.375 59.8203 27.3945 59.6719C27.4141 59.5195 27.4336 59.3086 27.4531 59.0391C27.2852 59.2266 27.1055 59.4023 26.9141 59.5664C26.7266 59.7266 26.5273 59.8672 26.3164 59.9883C26.1094 60.1055 25.8945 60.1973 25.6719 60.2637C25.4492 60.334 25.2188 60.3691 24.9805 60.3691C24.793 60.3691 24.6113 60.3398 24.4355 60.2812C24.2598 60.2266 24.1035 60.1465 23.9668 60.041C23.834 59.9355 23.7266 59.8086 23.6445 59.6602C23.5664 59.5078 23.5273 59.3379 23.5273 59.1504C23.5273 58.8574 23.5898 58.5996 23.7148 58.377C23.8438 58.1543 24.0117 57.9609 24.2188 57.7969C24.4258 57.6289 24.6602 57.4902 24.9219 57.3809C25.1875 57.2676 25.457 57.1777 25.7305 57.1113C26.0039 57.041 26.2695 56.9922 26.5273 56.9648C26.7852 56.9336 27.0137 56.918 27.2129 56.918H27.3535C27.3535 56.6797 27.3105 56.4473 27.2246 56.2207C27.1426 55.9941 27.0254 55.793 26.873 55.6172C26.7246 55.4414 26.5469 55.3008 26.3398 55.1953C26.1328 55.0859 25.9043 55.0312 25.6543 55.0312C25.4707 55.0312 25.291 55.084 25.1152 55.1895C24.9395 55.291 24.7832 55.4219 24.6465 55.582C24.5098 55.7422 24.3984 55.9219 24.3125 56.1211C24.2305 56.3203 24.1895 56.5137 24.1895 56.7012C24.1895 56.7793 24.1562 56.8457 24.0898 56.9004C24.0273 56.9512 23.957 56.9766 23.8789 56.9766C23.793 56.9766 23.7188 56.9453 23.6562 56.8828C23.5938 56.8164 23.5625 56.7441 23.5625 56.666C23.5625 56.4785 23.5957 56.2832 23.6621 56.0801C23.7285 55.873 23.8242 55.6719 23.9492 55.4766C24.0781 55.2773 24.2324 55.0898 24.4121 54.9141C24.5957 54.7383 24.8027 54.584 25.0332 54.4512C25.2676 54.3145 25.5234 54.207 25.8008 54.1289C26.0781 54.0508 26.373 54.0117 26.6855 54.0117C27.123 54.0117 27.4961 54.0801 27.8047 54.2168C28.1172 54.3535 28.377 54.5391 28.584 54.7734C28.7949 55.0078 28.9609 55.2793 29.082 55.5879C29.2031 55.8965 29.2949 56.2227 29.3574 56.5664C29.4199 56.9102 29.459 57.2598 29.4746 57.6152C29.4941 57.9707 29.5039 58.3105 29.5039 58.6348C29.5039 58.7988 29.502 58.9395 29.498 59.0566C29.4941 59.1738 29.4922 59.2715 29.4922 59.3496C29.5508 59.3496 29.6094 59.3477 29.668 59.3438C29.7305 59.3398 29.791 59.3379 29.8496 59.3379C29.916 59.3379 29.9844 59.3398 30.0547 59.3438C30.1289 59.3477 30.2012 59.3496 30.2715 59.3496C30.3574 59.3574 30.4258 59.3906 30.4766 59.4492C30.5312 59.5078 30.5586 59.5801 30.5586 59.666C30.5586 59.748 30.5293 59.8203 30.4707 59.8828C30.416 59.9453 30.3457 59.9766 30.2598 59.9766ZM28.7949 73.0938C28.6504 73.0938 28.5137 73.0664 28.3848 73.0117C28.2598 72.957 28.1504 72.8828 28.0566 72.7891C27.9629 72.6953 27.8887 72.5859 27.834 72.4609C27.7793 72.332 27.752 72.1953 27.752 72.0508C27.752 71.9062 27.7793 71.7715 27.834 71.6465C27.8887 71.5176 27.9629 71.4062 28.0566 71.3125C28.1504 71.2148 28.2598 71.1387 28.3848 71.084C28.5137 71.0254 28.6504 70.9961 28.7949 70.9961C28.8145 70.9961 28.832 70.998 28.8477 71.002C28.8672 71.0059 28.8867 71.0078 28.9062 71.0078C28.8047 70.9297 28.6855 70.8711 28.5488 70.832C28.416 70.7891 28.2617 70.7676 28.0859 70.7676C27.8633 70.7676 27.6699 70.8145 27.5059 70.9082C27.3418 70.998 27.2012 71.1133 27.084 71.2539C26.9707 71.3906 26.8789 71.541 26.8086 71.7051C26.7383 71.8652 26.6816 72.0176 26.6387 72.1621C26.5996 72.3027 26.5723 72.4238 26.5566 72.5254C26.5449 72.627 26.5391 72.6855 26.5391 72.7012L26.5273 75.3027C26.6641 75.3145 26.8008 75.332 26.9375 75.3555C27.0781 75.3789 27.2207 75.4023 27.3652 75.4258C27.4395 75.4453 27.5 75.4844 27.5469 75.543C27.5938 75.5977 27.6172 75.6621 27.6172 75.7363C27.6172 75.8223 27.584 75.8945 27.5176 75.9531C27.4512 76.0078 27.3809 76.0352 27.3066 76.0352H27.248C26.9316 75.9766 26.6309 75.9316 26.3457 75.9004C26.0605 75.8691 25.7773 75.8535 25.4961 75.8535C25.2148 75.8535 24.9336 75.8691 24.6523 75.9004C24.3711 75.9316 24.0723 75.9766 23.7559 76.0352H23.6973C23.6074 76.0352 23.5352 76.0059 23.4805 75.9473C23.4258 75.8848 23.3984 75.8145 23.3984 75.7363C23.3984 75.6621 23.4199 75.5977 23.4629 75.543C23.5059 75.4844 23.5645 75.4453 23.6387 75.4258C23.7754 75.4023 23.9121 75.3789 24.0488 75.3555C24.1855 75.332 24.3203 75.3145 24.4531 75.3027V70.9375C24.207 70.9258 24 70.9102 23.832 70.8906C23.6641 70.8711 23.5703 70.8574 23.5508 70.8496C23.4727 70.8418 23.4082 70.8105 23.3574 70.7559C23.3105 70.6973 23.2871 70.6289 23.2871 70.5508C23.2871 70.4531 23.3203 70.377 23.3867 70.3223C23.457 70.2676 23.5273 70.2402 23.5977 70.2402H23.6387C23.6426 70.2441 23.6875 70.252 23.7734 70.2637C23.8594 70.2715 23.9707 70.2812 24.1074 70.293C24.2441 70.3047 24.4004 70.3145 24.5762 70.3223C24.7559 70.3301 24.9375 70.334 25.1211 70.334C25.3086 70.334 25.4922 70.3281 25.6719 70.3164C25.8516 70.3047 26.0176 70.2832 26.1699 70.252C26.1777 70.2441 26.1973 70.2402 26.2285 70.2402C26.3184 70.2402 26.3926 70.2734 26.4512 70.3398C26.5098 70.4023 26.5391 70.4727 26.5391 70.5508V70.9727C26.707 70.7383 26.918 70.5449 27.1719 70.3926C27.4297 70.2363 27.7344 70.1582 28.0859 70.1582C28.3516 70.166 28.5938 70.2129 28.8125 70.2988C29.0312 70.3809 29.2188 70.4961 29.375 70.6445C29.5352 70.7891 29.6582 70.9648 29.7441 71.1719C29.834 71.375 29.8789 71.6035 29.8789 71.8574C29.8789 72.0176 29.8535 72.1719 29.8027 72.3203C29.752 72.4688 29.6797 72.6016 29.5859 72.7188C29.4922 72.832 29.377 72.9238 29.2402 72.9941C29.1074 73.0605 28.959 73.0938 28.7949 73.0938ZM27.4531 89.9492C27.4453 89.8828 27.4395 89.8145 27.4355 89.7441C27.4316 89.6738 27.4297 89.6016 27.4297 89.5273H27.2129C27.0566 89.5273 26.8711 89.5391 26.6562 89.5625C26.4453 89.5859 26.2266 89.623 26 89.6738C25.7734 89.7246 25.5488 89.793 25.3262 89.8789C25.1035 89.9609 24.9043 90.0625 24.7285 90.1836C24.5527 90.3008 24.4102 90.4395 24.3008 90.5996C24.1953 90.7598 24.1426 90.9434 24.1426 91.1504C24.1426 91.2598 24.168 91.3535 24.2188 91.4316C24.2734 91.5098 24.3398 91.5742 24.418 91.625C24.5 91.6719 24.5898 91.707 24.6875 91.7305C24.7852 91.75 24.8789 91.7598 24.9688 91.7598C25.2461 91.7598 25.5078 91.707 25.7539 91.6016C26.0039 91.4922 26.2344 91.3516 26.4453 91.1797C26.6562 91.0039 26.8457 90.8086 27.0137 90.5938C27.1816 90.3789 27.3281 90.1641 27.4531 89.9492ZM30.2598 91.9766H30.2363C30.1699 91.9688 30.1016 91.9648 30.0312 91.9648C29.9609 91.9648 29.8926 91.9648 29.8262 91.9648C29.459 91.9648 29.1055 91.9883 28.7656 92.0352C28.4297 92.082 28.0918 92.1543 27.752 92.252C27.7402 92.252 27.7285 92.2539 27.7168 92.2578C27.7051 92.2617 27.6895 92.2637 27.6699 92.2637C27.5801 92.2637 27.5059 92.2285 27.4473 92.1582C27.3926 92.0918 27.3652 92.0234 27.3652 91.9531V91.9062C27.3652 91.8984 27.375 91.8203 27.3945 91.6719C27.4141 91.5195 27.4336 91.3086 27.4531 91.0391C27.2852 91.2266 27.1055 91.4023 26.9141 91.5664C26.7266 91.7266 26.5273 91.8672 26.3164 91.9883C26.1094 92.1055 25.8945 92.1973 25.6719 92.2637C25.4492 92.334 25.2188 92.3691 24.9805 92.3691C24.793 92.3691 24.6113 92.3398 24.4355 92.2812C24.2598 92.2266 24.1035 92.1465 23.9668 92.041C23.834 91.9355 23.7266 91.8086 23.6445 91.6602C23.5664 91.5078 23.5273 91.3379 23.5273 91.1504C23.5273 90.8574 23.5898 90.5996 23.7148 90.377C23.8438 90.1543 24.0117 89.9609 24.2188 89.7969C24.4258 89.6289 24.6602 89.4902 24.9219 89.3809C25.1875 89.2676 25.457 89.1777 25.7305 89.1113C26.0039 89.041 26.2695 88.9922 26.5273 88.9648C26.7852 88.9336 27.0137 88.918 27.2129 88.918H27.3535C27.3535 88.6797 27.3105 88.4473 27.2246 88.2207C27.1426 87.9941 27.0254 87.793 26.873 87.6172C26.7246 87.4414 26.5469 87.3008 26.3398 87.1953C26.1328 87.0859 25.9043 87.0312 25.6543 87.0312C25.4707 87.0312 25.291 87.084 25.1152 87.1895C24.9395 87.291 24.7832 87.4219 24.6465 87.582C24.5098 87.7422 24.3984 87.9219 24.3125 88.1211C24.2305 88.3203 24.1895 88.5137 24.1895 88.7012C24.1895 88.7793 24.1562 88.8457 24.0898 88.9004C24.0273 88.9512 23.957 88.9766 23.8789 88.9766C23.793 88.9766 23.7188 88.9453 23.6562 88.8828C23.5938 88.8164 23.5625 88.7441 23.5625 88.666C23.5625 88.4785 23.5957 88.2832 23.6621 88.0801C23.7285 87.873 23.8242 87.6719 23.9492 87.4766C24.0781 87.2773 24.2324 87.0898 24.4121 86.9141C24.5957 86.7383 24.8027 86.584 25.0332 86.4512C25.2676 86.3145 25.5234 86.207 25.8008 86.1289C26.0781 86.0508 26.373 86.0117 26.6855 86.0117C27.123 86.0117 27.4961 86.0801 27.8047 86.2168C28.1172 86.3535 28.377 86.5391 28.584 86.7734C28.7949 87.0078 28.9609 87.2793 29.082 87.5879C29.2031 87.8965 29.2949 88.2227 29.3574 88.5664C29.4199 88.9102 29.459 89.2598 29.4746 89.6152C29.4941 89.9707 29.5039 90.3105 29.5039 90.6348C29.5039 90.7988 29.502 90.9395 29.498 91.0566C29.4941 91.1738 29.4922 91.2715 29.4922 91.3496C29.5508 91.3496 29.6094 91.3477 29.668 91.3438C29.7305 91.3398 29.791 91.3379 29.8496 91.3379C29.916 91.3379 29.9844 91.3398 30.0547 91.3438C30.1289 91.3477 30.2012 91.3496 30.2715 91.3496C30.3574 91.3574 30.4258 91.3906 30.4766 91.4492C30.5312 91.5078 30.5586 91.5801 30.5586 91.666C30.5586 91.748 30.5293 91.8203 30.4707 91.8828C30.416 91.9453 30.3457 91.9766 30.2598 91.9766Z" fill="white"/>
<path d="M58.6309 26.7559C57.6035 27.127 57.0898 27.9062 57.0898 29.0938C57.0898 29.8398 57.3477 30.4648 57.8633 30.9688C58.0234 31.125 58.207 31.2559 58.4141 31.3613C58.0781 30.8613 57.9102 30.1777 57.9102 29.3105C57.9102 28.6973 57.9551 28.2402 58.0449 27.9395C58.1855 27.4629 58.3809 27.0684 58.6309 26.7559ZM58.5312 29.0586C58.9688 29.1953 59.4707 29.2637 60.0371 29.2637C60.6035 29.2637 61.1543 29.1445 61.6895 28.9062V28.8066C61.6895 27.8613 61.3867 27.209 60.7812 26.8496C60.5703 26.7246 60.3164 26.6406 60.0195 26.5977C59.0664 26.707 58.5703 27.5273 58.5312 29.0586ZM62.2988 28.7949L62.2871 29.1348C62.248 29.459 61.7324 29.6895 60.7402 29.8262C60.4238 29.8691 60.0879 29.8906 59.7324 29.8906C59.3809 29.8906 58.9844 29.8301 58.543 29.709C58.6289 30.5957 58.9258 31.1953 59.4336 31.5078C59.6211 31.6211 59.8047 31.6777 59.9844 31.6777C60.168 31.6777 60.3223 31.666 60.4473 31.6426C60.5723 31.6152 60.6953 31.5781 60.8164 31.5312C61.0898 31.418 61.2812 31.2812 61.3906 31.1211C61.457 31.043 61.5332 31.0039 61.6191 31.0039C61.709 31.0039 61.7852 31.0371 61.8477 31.1035C61.9102 31.166 61.9414 31.2383 61.9414 31.3203C61.9414 31.3984 61.916 31.4609 61.8652 31.5078C61.6973 31.7695 61.3848 31.9766 60.9277 32.1289C60.0801 32.4062 59.2656 32.3828 58.4844 32.0586C57.6641 31.7227 57.082 31.1562 56.7383 30.3594C56.5664 29.9688 56.4805 29.5371 56.4805 29.0645C56.4805 28.5879 56.5547 28.1562 56.7031 27.7695C56.8516 27.3789 57.0625 27.0508 57.3359 26.7852C57.8945 26.2383 58.666 25.9648 59.6504 25.9648C61.416 26.0391 62.2988 26.9824 62.2988 28.7949ZM64.9355 34.4258L65.3164 34.4375L65.3281 26.7676C65.0742 26.791 64.8184 26.8027 64.5605 26.8027H64.4668V34.4375L64.9355 34.4258ZM69.5293 30.1133C69.5996 29.9023 69.6504 29.6895 69.6816 29.4746C69.7168 29.2559 69.7324 29.0312 69.7285 28.8008C69.7285 28.5664 69.6895 28.3184 69.6113 28.0566C69.5332 27.791 69.418 27.5547 69.2656 27.3477C68.9297 26.8828 68.498 26.6504 67.9707 26.6504C67.584 26.6504 67.2227 26.8145 66.8867 27.1426C66.4492 27.5762 66.1562 28.1523 66.0078 28.8711C65.9648 29.0781 65.9434 29.2695 65.9434 29.4453V30.6348C66.0293 30.9707 66.248 31.2383 66.5996 31.4375C66.9004 31.6055 67.2109 31.6895 67.5312 31.6895C67.8516 31.6895 68.1133 31.6465 68.3164 31.5605C68.5234 31.4746 68.7051 31.3594 68.8613 31.2148C69.0176 31.0703 69.1504 30.9043 69.2598 30.7168C69.3691 30.5254 69.459 30.3242 69.5293 30.1133ZM63.8574 26.7793L63.1133 26.709C63.0352 26.6973 62.9707 26.6621 62.9199 26.6035C62.8691 26.5449 62.8438 26.4727 62.8438 26.3867C62.8438 26.3008 62.8789 26.2305 62.9492 26.1758C63.0234 26.1211 63.0938 26.0938 63.1602 26.0938H63.1953C63.1992 26.0938 63.2402 26.0996 63.3184 26.1113C63.3965 26.1191 63.5 26.1289 63.6289 26.1406C63.9336 26.1758 64.2109 26.1934 64.4609 26.1934C64.9219 26.1934 65.2246 26.1777 65.3691 26.1465C65.5176 26.1113 65.6211 26.0938 65.6797 26.0938C65.7383 26.0938 65.7969 26.127 65.8555 26.1934C65.9141 26.2598 65.9434 26.332 65.9434 26.4102V27.3652C66.1777 26.9551 66.4668 26.6309 66.8105 26.3926C67.1582 26.1543 67.5332 26.0352 67.9355 26.0352C68.3418 26.0352 68.6914 26.1191 68.9844 26.2871C69.2773 26.4551 69.5234 26.6738 69.7227 26.9434C70.1211 27.4746 70.334 28.1113 70.3613 28.8535C70.3613 29.752 70.1289 30.5391 69.6641 31.2148C69.3516 31.668 68.9453 31.9863 68.4453 32.1699C68.1953 32.2637 67.9219 32.3105 67.625 32.3105C66.957 32.3105 66.3965 32.1152 65.9434 31.7246V34.4844C66.1465 34.5039 66.3086 34.5215 66.4297 34.5371C66.6484 34.5645 66.7578 34.666 66.7578 34.8418C66.7578 34.9434 66.7227 35.0215 66.6523 35.0762C66.582 35.1309 66.5137 35.1582 66.4473 35.1582H66.4121C65.8652 35.084 65.3398 35.0469 64.8359 35.0469C64.332 35.0469 63.8203 35.0996 63.3008 35.2051H63.2539C63.1641 35.2051 63.0898 35.1738 63.0312 35.1113C62.9727 35.0527 62.9434 34.9844 62.9434 34.9062C62.9434 34.7383 63.0273 34.6367 63.1953 34.6016C63.4297 34.5547 63.6504 34.5195 63.8574 34.4961V26.7793ZM73.0449 34.4258L73.4258 34.4375L73.4375 26.7676C73.1836 26.791 72.9277 26.8027 72.6699 26.8027H72.5762V34.4375L73.0449 34.4258ZM77.6387 30.1133C77.709 29.9023 77.7598 29.6895 77.791 29.4746C77.8262 29.2559 77.8418 29.0312 77.8379 28.8008C77.8379 28.5664 77.7988 28.3184 77.7207 28.0566C77.6426 27.791 77.5273 27.5547 77.375 27.3477C77.0391 26.8828 76.6074 26.6504 76.0801 26.6504C75.6934 26.6504 75.332 26.8145 74.9961 27.1426C74.5586 27.5762 74.2656 28.1523 74.1172 28.8711C74.0742 29.0781 74.0527 29.2695 74.0527 29.4453V30.6348C74.1387 30.9707 74.3574 31.2383 74.709 31.4375C75.0098 31.6055 75.3203 31.6895 75.6406 31.6895C75.9609 31.6895 76.2227 31.6465 76.4258 31.5605C76.6328 31.4746 76.8145 31.3594 76.9707 31.2148C77.127 31.0703 77.2598 30.9043 77.3691 30.7168C77.4785 30.5254 77.5684 30.3242 77.6387 30.1133ZM71.9668 26.7793L71.2227 26.709C71.1445 26.6973 71.0801 26.6621 71.0293 26.6035C70.9785 26.5449 70.9531 26.4727 70.9531 26.3867C70.9531 26.3008 70.9883 26.2305 71.0586 26.1758C71.1328 26.1211 71.2031 26.0938 71.2695 26.0938H71.3047C71.3086 26.0938 71.3496 26.0996 71.4277 26.1113C71.5059 26.1191 71.6094 26.1289 71.7383 26.1406C72.043 26.1758 72.3203 26.1934 72.5703 26.1934C73.0312 26.1934 73.334 26.1777 73.4785 26.1465C73.627 26.1113 73.7305 26.0938 73.7891 26.0938C73.8477 26.0938 73.9062 26.127 73.9648 26.1934C74.0234 26.2598 74.0527 26.332 74.0527 26.4102V27.3652C74.2871 26.9551 74.5762 26.6309 74.9199 26.3926C75.2676 26.1543 75.6426 26.0352 76.0449 26.0352C76.4512 26.0352 76.8008 26.1191 77.0938 26.2871C77.3867 26.4551 77.6328 26.6738 77.832 26.9434C78.2305 27.4746 78.4434 28.1113 78.4707 28.8535C78.4707 29.752 78.2383 30.5391 77.7734 31.2148C77.4609 31.668 77.0547 31.9863 76.5547 32.1699C76.3047 32.2637 76.0312 32.3105 75.7344 32.3105C75.0664 32.3105 74.5059 32.1152 74.0527 31.7246V34.4844C74.2559 34.5039 74.418 34.5215 74.5391 34.5371C74.7578 34.5645 74.8672 34.666 74.8672 34.8418C74.8672 34.9434 74.832 35.0215 74.7617 35.0762C74.6914 35.1309 74.623 35.1582 74.5566 35.1582H74.5215C73.9746 35.084 73.4492 35.0469 72.9453 35.0469C72.4414 35.0469 71.9297 35.0996 71.4102 35.2051H71.3633C71.2734 35.2051 71.1992 35.1738 71.1406 35.1113C71.082 35.0527 71.0527 34.9844 71.0527 34.9062C71.0527 34.7383 71.1367 34.6367 71.3047 34.6016C71.5391 34.5547 71.7598 34.5195 71.9668 34.4961V26.7793ZM81.7988 26.8906C81.5996 26.9219 81.332 26.9375 80.9961 26.9375H80.9492V31.3496C81.0234 31.3418 81.0957 31.3379 81.166 31.3379C81.3066 31.3379 81.4297 31.3379 81.5352 31.3379C81.6406 31.3379 81.7285 31.3418 81.7988 31.3496V26.8906ZM81.7285 24.4414C81.7285 24.3203 81.6855 24.2188 81.5996 24.1367C81.5176 24.0508 81.416 24.0078 81.2949 24.0078C81.1738 24.0078 81.0723 24.0508 80.9902 24.1367C80.9082 24.2188 80.8672 24.3203 80.8672 24.4414C80.8672 24.5625 80.9082 24.6641 80.9902 24.7461C81.0723 24.8281 81.1738 24.8691 81.2949 24.8691C81.416 24.8691 81.5176 24.8281 81.5996 24.7461C81.6855 24.6641 81.7285 24.5625 81.7285 24.4414ZM83.1934 32.1465C82.5488 32.0176 81.9473 31.9531 81.3887 31.9531C80.8301 31.9531 80.2285 32.0176 79.584 32.1465C79.4941 32.1465 79.4199 32.1133 79.3613 32.0469C79.3066 31.9805 79.2793 31.9102 79.2793 31.8359C79.2793 31.7617 79.3008 31.6953 79.3438 31.6367C79.3906 31.5781 79.4648 31.5391 79.5664 31.5195C79.6719 31.4961 79.793 31.4766 79.9297 31.4609C80.0703 31.4414 80.207 31.4219 80.3398 31.4023V26.9141L79.4375 26.8379C79.3594 26.8262 79.2949 26.791 79.2441 26.7324C79.1973 26.6738 79.1738 26.6016 79.1738 26.5156C79.1738 26.4258 79.209 26.3555 79.2793 26.3047C79.3496 26.2539 79.418 26.2285 79.4844 26.2285H79.5195C79.5234 26.2285 79.5684 26.2344 79.6543 26.2461C79.7402 26.2539 79.8516 26.2637 79.9883 26.2754C80.3594 26.3066 80.6992 26.3223 81.0078 26.3223C81.4375 26.3223 81.7852 26.291 82.0508 26.2285H82.1152C82.2051 26.2285 82.2793 26.2598 82.3379 26.3223C82.3965 26.3809 82.4258 26.4492 82.4258 26.5273L82.4141 31.4023C82.5508 31.4219 82.6875 31.4414 82.8242 31.4609C82.9648 31.4766 83.0898 31.4961 83.1992 31.5195C83.4023 31.5586 83.5039 31.6621 83.5039 31.8301C83.5039 31.9199 83.4707 31.9941 83.4043 32.0527C83.3379 32.1152 83.2676 32.1465 83.1934 32.1465ZM82.3438 24.4414C82.3438 24.7344 82.2422 24.9805 82.0391 25.1797C81.8281 25.3828 81.5801 25.4844 81.2949 25.4844C81.0059 25.4844 80.7598 25.3828 80.5566 25.1797C80.3535 24.9766 80.252 24.7305 80.252 24.4414C80.252 24.1523 80.3535 23.9062 80.5566 23.7031C80.7598 23.5 81.0059 23.3984 81.2949 23.3984C81.5801 23.3984 81.8281 23.5 82.0391 23.7031C82.2422 23.9023 82.3438 24.1484 82.3438 24.4414ZM86.2285 24.3066C86.0293 24.3379 85.7598 24.3535 85.4199 24.3535H85.373V31.2676C85.4473 31.2598 85.5195 31.2559 85.5898 31.2559C85.7305 31.2559 85.8535 31.2559 85.959 31.2559C86.0645 31.2559 86.1543 31.2598 86.2285 31.2676V24.3066ZM86.8496 26.9258C87.2949 26.2383 87.9023 25.8945 88.6719 25.8945C89.4297 25.8945 89.9922 26.1699 90.3594 26.7207C90.6758 27.1895 90.834 27.8145 90.834 28.5957C90.834 29.373 90.7305 30.252 90.5234 31.2324C90.7695 31.2324 90.9688 31.2441 91.1211 31.2676C91.3789 31.3066 91.5078 31.4141 91.5078 31.5898C91.5078 31.6758 91.4746 31.75 91.4082 31.8125C91.3418 31.875 91.2852 31.9062 91.2383 31.9062C91.1914 31.9062 91.1328 31.8984 91.0625 31.8828C90.5742 31.793 89.9414 31.8164 89.1641 31.9531C89.1562 31.9609 89.1484 31.9648 89.1406 31.9648C89.1328 31.9648 89.1035 31.9648 89.0527 31.9648C89.0059 31.9648 88.9531 31.9336 88.8945 31.8711C88.8359 31.8047 88.8066 31.7344 88.8066 31.6602C88.8066 31.4883 88.8906 31.3848 89.0586 31.3496C89.3359 31.291 89.6152 31.2559 89.8965 31.2441C90.1113 30.2559 90.2188 29.4121 90.2188 28.7129C90.2188 27.6621 89.959 26.9844 89.4395 26.6797C89.2402 26.5625 89.0176 26.5039 88.7715 26.5039C88.5293 26.5039 88.3281 26.5371 88.168 26.6035C88.0117 26.6699 87.8652 26.7598 87.7285 26.873C87.5957 26.9824 87.4746 27.1113 87.3652 27.2598C87.2559 27.4082 87.1641 27.5625 87.0898 27.7227C86.9297 28.0625 86.8496 28.3887 86.8496 28.7012L86.8379 31.3145C87.0762 31.334 87.293 31.3652 87.4883 31.4082C87.6875 31.4473 87.8105 31.4961 87.8574 31.5547C87.9043 31.6094 87.9277 31.6777 87.9277 31.7598C87.9277 31.8418 87.8945 31.9102 87.8281 31.9648C87.7656 32.0195 87.6953 32.0469 87.6172 32.0469H87.5586C86.9062 31.9258 86.3223 31.8652 85.8066 31.8652C85.291 31.8652 84.7109 31.9258 84.0664 32.0469H84.0078C83.918 32.0469 83.8438 32.0176 83.7852 31.959C83.7305 31.8965 83.7031 31.8281 83.7031 31.7539C83.7031 31.6758 83.7246 31.6094 83.7676 31.5547C83.8145 31.4961 83.8887 31.457 83.9902 31.4375C84.0957 31.4141 84.2168 31.3926 84.3535 31.373C84.4941 31.3535 84.6309 31.334 84.7637 31.3145V24.3301L83.8613 24.2598C83.7832 24.248 83.7188 24.2129 83.668 24.1543C83.6211 24.0957 83.5977 24.0234 83.5977 23.9375C83.5977 23.8477 83.6328 23.7773 83.7031 23.7266C83.7734 23.6758 83.8418 23.6504 83.9082 23.6504H83.9434C83.9473 23.6504 83.9922 23.6562 84.0781 23.668C84.1641 23.6758 84.2773 23.6855 84.418 23.6973C84.7852 23.7285 85.123 23.7441 85.4316 23.7441C85.8613 23.7441 86.2109 23.7129 86.4805 23.6504H86.5391C86.6289 23.6504 86.7031 23.6816 86.7617 23.7441C86.8203 23.8027 86.8496 23.8711 86.8496 23.9492V26.9258ZM96.207 29.9492C96.1914 29.8164 96.1836 29.6758 96.1836 29.5273H95.9668C95.3262 29.5273 94.6973 29.6445 94.0801 29.8789C93.291 30.1758 92.8965 30.5996 92.8965 31.1504C92.8965 31.3535 92.9883 31.5117 93.1719 31.625C93.3242 31.7148 93.5234 31.7598 93.7695 31.7598C94.0156 31.7598 94.2617 31.707 94.5078 31.6016C94.7578 31.4922 94.9883 31.3516 95.1992 31.1797C95.5742 30.8672 95.9102 30.457 96.207 29.9492ZM97.6191 31.4023C97.6309 31.2852 97.6367 31.0508 97.6367 30.6992C97.6367 30.3477 97.6289 30.0137 97.6133 29.6973C97.6016 29.377 97.5723 29.0684 97.5254 28.7715C97.4785 28.4746 97.4082 28.1953 97.3145 27.9336C97.2207 27.6719 97.0938 27.4453 96.9336 27.2539C96.5781 26.832 96.084 26.6211 95.4512 26.6211C95.4395 26.6211 95.4297 26.625 95.4219 26.6328C95.4141 26.6367 95.4043 26.6387 95.3926 26.6387H95.416C96.0449 26.9785 96.4531 27.543 96.6406 28.332C96.7461 28.7656 96.8027 29.1777 96.8105 29.5684C96.8223 29.9551 96.8281 30.2598 96.8281 30.4824C96.8281 30.834 96.8125 31.1875 96.7812 31.543C97.0625 31.4844 97.3418 31.4375 97.6191 31.4023ZM98.6035 31.3379L99.0254 31.3496C99.1113 31.3574 99.1797 31.3906 99.2305 31.4492C99.2852 31.5078 99.3125 31.5801 99.3125 31.666C99.3125 31.748 99.2832 31.8203 99.2246 31.8828C99.1699 31.9453 99.0996 31.9766 99.0137 31.9766H98.9902C98.9238 31.9688 98.8555 31.9648 98.7852 31.9648H98.5801C97.8652 31.9648 97.1738 32.0605 96.5059 32.252L96.4238 32.2637C96.334 32.2637 96.2598 32.2285 96.2012 32.1582C96.1465 32.0918 96.1191 32.0234 96.1191 31.9531V31.9062C96.1191 31.8984 96.1289 31.8203 96.1484 31.6719C96.168 31.5195 96.1875 31.3086 96.207 31.0391C95.4141 31.9258 94.5898 32.3691 93.7344 32.3691C93.3398 32.3691 93.0039 32.2598 92.7266 32.041C92.4297 31.8105 92.2812 31.5312 92.2812 31.2031C92.2812 30.875 92.3438 30.5996 92.4688 30.377C92.5977 30.1543 92.7656 29.9609 92.9727 29.7969C93.1797 29.6289 93.4141 29.4902 93.6758 29.3809C93.9414 29.2676 94.2109 29.1758 94.4844 29.1055C94.9922 28.9805 95.4863 28.918 95.9668 28.918H96.1074C96.1074 28.4219 95.9492 27.9883 95.6328 27.6172C95.2969 27.2266 94.8887 27.0312 94.4082 27.0312C94.0488 27.0312 93.7129 27.2148 93.4004 27.582C93.0957 27.9375 92.9434 28.3105 92.9434 28.7012C92.9434 28.7793 92.9102 28.8457 92.8438 28.9004C92.7812 28.9512 92.709 28.9766 92.627 28.9766C92.5449 28.9766 92.4727 28.9453 92.4102 28.8828C92.3477 28.8164 92.3164 28.7168 92.3164 28.584C92.3164 28.4512 92.3496 28.2832 92.416 28.0801C92.4824 27.873 92.5781 27.6719 92.7031 27.4766C92.832 27.2773 92.9863 27.0898 93.166 26.9141C93.3496 26.7383 93.5586 26.582 93.793 26.4453C94.293 26.1562 94.8008 26.0117 95.3164 26.0117C95.8359 26.0117 96.25 26.0801 96.5586 26.2168C96.8711 26.3535 97.1309 26.5391 97.3379 26.7734C97.5488 27.0078 97.7148 27.2793 97.8359 27.5879C97.957 27.8965 98.0488 28.2227 98.1113 28.5664C98.209 29.1055 98.2578 29.7949 98.2578 30.6348L98.2461 31.3496L98.6035 31.3379ZM101.715 24.2129C101.461 24.2363 101.193 24.248 100.912 24.248H100.865V31.3262H101.715V24.2129ZM100.256 24.2363L99.5352 24.1543C99.457 24.1426 99.3926 24.1074 99.3418 24.0488C99.2949 23.9902 99.2715 23.918 99.2715 23.832C99.2715 23.7422 99.3066 23.6719 99.377 23.6211C99.4473 23.5664 99.5156 23.5391 99.582 23.5391H99.6172C99.6211 23.5391 99.6562 23.5449 99.7227 23.5566C99.7891 23.5645 99.8789 23.5742 99.9922 23.5859C100.273 23.6211 100.584 23.6387 100.924 23.6387C101.342 23.6387 101.623 23.623 101.768 23.5918C101.912 23.5566 102.014 23.5391 102.072 23.5391C102.135 23.5391 102.195 23.5723 102.254 23.6387C102.312 23.7012 102.342 23.7715 102.342 23.8496L102.33 31.3906C102.439 31.4023 102.525 31.4141 102.588 31.4258C102.654 31.4336 102.709 31.4414 102.752 31.4492C102.799 31.4531 102.857 31.4629 102.928 31.4785C103.002 31.4941 103.062 31.5293 103.109 31.584C103.156 31.6387 103.18 31.707 103.18 31.7891C103.18 31.8672 103.146 31.9355 103.08 31.9941C103.018 32.0527 102.947 32.082 102.869 32.082H102.811C101.729 31.8906 100.66 31.8945 99.6055 32.0938H99.5469C99.4492 32.0938 99.375 32.0625 99.3242 32C99.2734 31.9414 99.248 31.873 99.248 31.7949C99.248 31.6309 99.3281 31.5273 99.4883 31.4844C99.7227 31.4453 99.9785 31.4141 100.256 31.3906V24.2363ZM105.658 31.3613C105.889 31.3613 106.068 31.3672 106.197 31.3789V27.0078C105.998 27.0391 105.73 27.0547 105.395 27.0547H105.348V31.3613H105.658ZM107.146 32.082C106.006 31.9297 104.949 31.9512 103.977 32.1465C103.887 32.1465 103.814 32.1133 103.76 32.0469C103.705 31.9805 103.678 31.9102 103.678 31.8359C103.678 31.7617 103.699 31.6953 103.742 31.6367C103.785 31.5781 103.861 31.5391 103.971 31.5195C104.189 31.4766 104.443 31.4414 104.732 31.4141V27.0312L103.836 26.9609C103.758 26.9492 103.693 26.9141 103.643 26.8555C103.596 26.7969 103.572 26.7246 103.572 26.6387C103.572 26.5488 103.607 26.4785 103.678 26.4277C103.748 26.373 103.816 26.3457 103.883 26.3457H103.918C103.922 26.3457 103.967 26.3516 104.053 26.3633C104.139 26.3711 104.25 26.3828 104.387 26.3984C104.727 26.4297 105.066 26.4453 105.406 26.4453C105.848 26.4453 106.195 26.4121 106.449 26.3457H106.508C106.598 26.3457 106.672 26.377 106.73 26.4395C106.793 26.502 106.824 26.5723 106.824 26.6504V27.418C107.156 26.8789 107.57 26.5195 108.066 26.3398C108.25 26.2734 108.441 26.2402 108.641 26.2402C108.84 26.2402 109.016 26.2676 109.168 26.3223C109.32 26.377 109.457 26.4531 109.578 26.5508C109.812 26.75 109.982 27.0176 110.088 27.3535C110.568 26.6113 111.195 26.2402 111.969 26.2402C112.559 26.2402 112.992 26.4902 113.27 26.9902C113.484 27.377 113.592 27.9082 113.592 28.584C113.592 29.2598 113.492 30.166 113.293 31.3027C113.871 31.3027 114.207 31.3555 114.301 31.4609C114.355 31.5195 114.383 31.5898 114.383 31.6719C114.383 31.75 114.35 31.8203 114.283 31.8828C114.221 31.9453 114.15 31.9766 114.072 31.9766H114.031C113.742 31.9375 113.422 31.918 113.07 31.918C112.723 31.918 112.305 31.957 111.816 32.0352H111.764C111.682 32.0352 111.611 32.0059 111.553 31.9473C111.494 31.8848 111.465 31.8145 111.465 31.7363C111.465 31.6582 111.488 31.5898 111.535 31.5312C111.586 31.4727 111.672 31.4336 111.793 31.4141C112.133 31.3672 112.42 31.334 112.654 31.3145C112.861 30.2793 112.965 29.3555 112.965 28.543C112.965 28.0586 112.918 27.707 112.824 27.4883C112.73 27.2695 112.617 27.1094 112.484 27.0078C112.355 26.9023 112.168 26.8496 111.922 26.8496C111.68 26.8496 111.459 26.9062 111.26 27.0195C111.064 27.1328 110.896 27.2734 110.756 27.4414C110.533 27.7031 110.35 28.0547 110.205 28.4961C110.205 29.1992 110.121 30.1387 109.953 31.3145C110.102 31.3145 110.357 31.3301 110.721 31.3613C110.807 31.3691 110.873 31.4023 110.92 31.4609C110.971 31.5195 110.996 31.5918 110.996 31.6777C110.996 31.7637 110.965 31.8359 110.902 31.8945C110.84 31.9492 110.771 31.9766 110.697 31.9766H110.662C110.014 31.8984 109.289 31.918 108.488 32.0352H108.441C108.355 32.0352 108.283 32.0059 108.225 31.9473C108.17 31.8848 108.143 31.8145 108.143 31.7363C108.143 31.6582 108.166 31.5898 108.213 31.5312C108.264 31.4727 108.352 31.4336 108.477 31.4141C108.816 31.3672 109.102 31.3379 109.332 31.3262C109.508 30.2285 109.596 29.2773 109.596 28.4727C109.596 27.9961 109.553 27.6562 109.467 27.4531C109.381 27.25 109.275 27.0996 109.15 27.002C109.029 26.9004 108.867 26.8496 108.664 26.8496C108.465 26.8496 108.283 26.8945 108.119 26.9844C107.955 27.0703 107.807 27.1816 107.674 27.3184C107.541 27.4512 107.424 27.5996 107.322 27.7637C107.225 27.9238 107.141 28.0781 107.07 28.2266C106.953 28.4766 106.871 28.6895 106.824 28.8652L106.812 31.4258C106.883 31.4336 106.951 31.4414 107.018 31.4492C107.084 31.457 107.152 31.4668 107.223 31.4785C107.297 31.4863 107.359 31.5195 107.41 31.5781C107.465 31.6367 107.492 31.707 107.492 31.7891C107.492 31.8711 107.459 31.9414 107.393 32C107.33 32.0547 107.26 32.082 107.182 32.082H107.146ZM117.201 26.7559C116.174 27.127 115.66 27.9062 115.66 29.0938C115.66 29.8398 115.918 30.4648 116.434 30.9688C116.594 31.125 116.777 31.2559 116.984 31.3613C116.648 30.8613 116.48 30.1777 116.48 29.3105C116.48 28.6973 116.525 28.2402 116.615 27.9395C116.756 27.4629 116.951 27.0684 117.201 26.7559ZM117.102 29.0586C117.539 29.1953 118.041 29.2637 118.607 29.2637C119.174 29.2637 119.725 29.1445 120.26 28.9062V28.8066C120.26 27.8613 119.957 27.209 119.352 26.8496C119.141 26.7246 118.887 26.6406 118.59 26.5977C117.637 26.707 117.141 27.5273 117.102 29.0586ZM120.869 28.7949L120.857 29.1348C120.818 29.459 120.303 29.6895 119.311 29.8262C118.994 29.8691 118.658 29.8906 118.303 29.8906C117.951 29.8906 117.555 29.8301 117.113 29.709C117.199 30.5957 117.496 31.1953 118.004 31.5078C118.191 31.6211 118.375 31.6777 118.555 31.6777C118.738 31.6777 118.893 31.666 119.018 31.6426C119.143 31.6152 119.266 31.5781 119.387 31.5312C119.66 31.418 119.852 31.2812 119.961 31.1211C120.027 31.043 120.104 31.0039 120.189 31.0039C120.279 31.0039 120.355 31.0371 120.418 31.1035C120.48 31.166 120.512 31.2383 120.512 31.3203C120.512 31.3984 120.486 31.4609 120.436 31.5078C120.268 31.7695 119.955 31.9766 119.498 32.1289C118.65 32.4062 117.836 32.3828 117.055 32.0586C116.234 31.7227 115.652 31.1562 115.309 30.3594C115.137 29.9688 115.051 29.5371 115.051 29.0645C115.051 28.5879 115.125 28.1562 115.273 27.7695C115.422 27.3789 115.633 27.0508 115.906 26.7852C116.465 26.2383 117.236 25.9648 118.221 25.9648C119.986 26.0391 120.869 26.9824 120.869 28.7949Z" fill="white"/>
<path d="M34.8906 27.4414C34.8906 28.293 34.6953 29.0547 34.3047 29.7266C33.9141 30.3906 33.4102 30.9531 32.793 31.4141C32.1758 31.8672 31.4883 32.2148 30.7305 32.457C29.9805 32.6992 29.2383 32.8203 28.5039 32.8203C27.1289 32.8203 25.8594 32.5703 24.6953 32.0703C23.5312 31.5703 22.4961 30.8359 21.5898 29.8672V30.1484C21.5898 30.3984 21.5938 30.6445 21.6016 30.8867C21.6094 31.1289 21.6211 31.3711 21.6367 31.6133V31.6602C21.6367 31.8164 21.582 31.9531 21.4727 32.0703C21.3711 32.1875 21.2344 32.2539 21.0625 32.2695C20.8828 32.2695 20.7344 32.2148 20.6172 32.1055C20.5 31.9961 20.4336 31.8555 20.418 31.6836C20.4023 31.4336 20.3906 31.1836 20.3828 30.9336C20.375 30.6758 20.3711 30.4219 20.3711 30.1719C20.3711 29.375 20.4102 28.6406 20.4883 27.9688C20.5664 27.2891 20.6719 26.6172 20.8047 25.9531C20.8438 25.8047 20.9141 25.6836 21.0156 25.5898C21.125 25.4961 21.2539 25.4492 21.4023 25.4492C21.582 25.4492 21.7305 25.5195 21.8477 25.6602C21.9648 25.793 22.0234 25.9297 22.0234 26.0703C22.0234 26.0859 22.0234 26.1055 22.0234 26.1289C22.0234 26.1445 22.0156 26.1641 22 26.1875C21.9609 26.3672 21.9258 26.5352 21.8945 26.6914C21.8711 26.8398 21.8438 26.9883 21.8125 27.1367C21.7891 27.2773 21.7656 27.4258 21.7422 27.582C21.7266 27.7305 21.707 27.8984 21.6836 28.0859C22.5586 29.2109 23.5586 30.0781 24.6836 30.6875C25.8086 31.2891 27.0742 31.5898 28.4805 31.5898C28.8789 31.5898 29.3047 31.5547 29.7578 31.4844C30.2188 31.4141 30.6406 31.2891 31.0234 31.1094C31.4141 30.9219 31.7344 30.6758 31.9844 30.3711C32.2422 30.0586 32.3711 29.6641 32.3711 29.1875C32.3711 28.8516 32.2812 28.5469 32.1016 28.2734C31.9219 27.9922 31.6875 27.7422 31.3984 27.5234C31.1094 27.3047 30.7812 27.1133 30.4141 26.9492C30.0547 26.7773 29.6914 26.6289 29.3242 26.5039C28.957 26.3789 28.6055 26.2773 28.2695 26.1992C27.9414 26.1133 27.6602 26.0469 27.4258 26C26.8711 25.8828 26.3203 25.7539 25.7734 25.6133C25.2266 25.4648 24.707 25.2891 24.2148 25.0859C23.7227 24.8828 23.2656 24.6445 22.8438 24.3711C22.4219 24.0977 22.0547 23.7773 21.7422 23.4102C21.4375 23.0352 21.1953 22.6016 21.0156 22.1094C20.8438 21.6172 20.7578 21.0508 20.7578 20.4102C20.7578 19.7852 20.8398 19.2109 21.0039 18.6875C21.1758 18.1562 21.4102 17.6797 21.707 17.2578C22.0039 16.8359 22.3516 16.4688 22.75 16.1562C23.1562 15.8359 23.5977 15.5703 24.0742 15.3594C24.5508 15.1406 25.0508 14.9805 25.5742 14.8789C26.1055 14.7695 26.6406 14.7148 27.1797 14.7148C27.5078 14.7148 27.8555 14.7422 28.2227 14.7969C28.5977 14.8438 28.9688 14.9141 29.3359 15.0078C29.7031 15.0938 30.0625 15.1992 30.4141 15.3242C30.7734 15.4414 31.1055 15.5742 31.4102 15.7227C31.7148 15.8633 31.9844 16.0156 32.2188 16.1797C32.4531 16.3359 32.6406 16.4961 32.7812 16.6602C32.8906 16.3633 33.0078 16.0703 33.1328 15.7812C33.2656 15.4844 33.4023 15.1875 33.543 14.8906C33.6055 14.7812 33.6836 14.6992 33.7773 14.6445C33.8789 14.582 33.9844 14.5508 34.0938 14.5508C34.2734 14.5508 34.4219 14.6172 34.5391 14.75C34.6562 14.875 34.7148 15.0156 34.7148 15.1719C34.7148 15.2578 34.6914 15.3477 34.6445 15.4414C34.2383 16.2852 33.9023 17.1328 33.6367 17.9844C33.3789 18.8281 33.1953 19.6836 33.0859 20.5508C33.0703 20.707 33.0039 20.8359 32.8867 20.9375C32.7773 21.0312 32.6445 21.0781 32.4883 21.0781C32.3086 21.0781 32.1602 21.0117 32.043 20.8789C31.9258 20.7461 31.8672 20.6133 31.8672 20.4805V20.4102C31.9609 19.582 32.1289 18.7656 32.3711 17.9609C32.3242 17.8203 32.2031 17.6719 32.0078 17.5156C31.8125 17.3516 31.5703 17.1953 31.2812 17.0469C31 16.8984 30.6797 16.7578 30.3203 16.625C29.9609 16.4844 29.5938 16.3633 29.2188 16.2617C28.8438 16.1602 28.4688 16.0781 28.0938 16.0156C27.7188 15.9531 27.375 15.9219 27.0625 15.9219C26.5859 15.9219 26.1289 15.9727 25.6914 16.0742C25.2539 16.1758 24.8633 16.3398 24.5195 16.5664C24.1836 16.793 23.9102 17.0859 23.6992 17.4453C23.4883 17.7969 23.3789 18.2227 23.3711 18.7227C23.4023 19.1602 23.5195 19.5391 23.7227 19.8594C23.9336 20.1719 24.1914 20.4453 24.4961 20.6797C24.8086 20.9141 25.1602 21.1133 25.5508 21.2773C25.9414 21.4336 26.3359 21.5703 26.7344 21.6875C27.1406 21.7969 27.5352 21.8945 27.918 21.9805C28.3008 22.0586 28.6484 22.1328 28.9609 22.2031C29.75 22.3906 30.5039 22.6016 31.2227 22.8359C31.9414 23.0703 32.5703 23.3789 33.1094 23.7617C33.6562 24.1445 34.0898 24.6328 34.4102 25.2266C34.7305 25.8125 34.8906 26.5508 34.8906 27.4414Z" fill="white"/>
<path d="M52.332 31.6602C52.3086 31.8164 52.2383 31.9375 52.1211 32.0234C52.0039 32.1172 51.8711 32.1641 51.7227 32.1641H51.6523C51.332 32.1328 50.9492 32.1055 50.5039 32.082C50.0586 32.0586 49.5703 32.0391 49.0391 32.0234C48.5156 32.0078 47.957 31.9961 47.3633 31.9883C46.7773 31.9805 46.1836 31.9766 45.582 31.9766C44.9805 31.9766 44.3867 31.9805 43.8008 31.9883C43.2148 31.9961 42.6602 32.0078 42.1367 32.0234C41.6211 32.0391 41.1406 32.0586 40.6953 32.082C40.2578 32.1055 39.8867 32.1328 39.582 32.1641H39.5352C39.3789 32.1641 39.2422 32.1133 39.125 32.0117C39.0078 31.9102 38.9375 31.7617 38.9141 31.5664C38.9141 31.4102 38.9648 31.2734 39.0664 31.1562C39.1758 31.0391 39.3086 30.9688 39.4648 30.9453C39.6914 30.9219 39.9492 30.9023 40.2383 30.8867C40.5352 30.8711 40.8594 30.8516 41.2109 30.8281L41.4805 16.0156C40.8086 15.9688 40.1289 15.8984 39.4414 15.8047C39.2852 15.7812 39.1562 15.7109 39.0547 15.5938C38.9609 15.4766 38.9141 15.3438 38.9141 15.1953C38.9375 14.9922 39.0078 14.8398 39.125 14.7383C39.2422 14.6289 39.3789 14.5742 39.5352 14.5742H39.6055C40.4258 14.6992 41.2383 14.7891 42.043 14.8438C42.8555 14.8906 43.6602 14.9141 44.457 14.9141C44.9414 14.9141 45.418 14.9062 45.8867 14.8906C46.3555 14.875 46.8242 14.8438 47.293 14.7969H47.3398C47.5195 14.7969 47.668 14.8594 47.7852 14.9844C47.9023 15.1016 47.9609 15.2461 47.9609 15.418C47.9609 15.5742 47.9062 15.7109 47.7969 15.8281C47.6875 15.9375 47.5508 16 47.3867 16.0156C47.0977 16.0391 46.8047 16.0625 46.5078 16.0859C46.2188 16.1016 45.9258 16.1172 45.6289 16.1328L45.2422 30.7578H45.582C46.1133 30.7578 46.6406 30.7617 47.1641 30.7695C47.6875 30.7773 48.1914 30.7891 48.6758 30.8047C49.168 30.8125 49.6289 30.8242 50.0586 30.8398C50.4883 30.8555 50.875 30.875 51.2188 30.8984L52.0859 26C52.1094 25.8438 52.1797 25.7188 52.2969 25.625C52.4141 25.5234 52.543 25.4727 52.6836 25.4727C52.8555 25.4727 53.0039 25.5391 53.1289 25.6719C53.2539 25.7969 53.3164 25.9375 53.3164 26.0938C53.3164 26.1172 53.3125 26.1367 53.3047 26.1523C53.2969 26.168 53.293 26.1875 53.293 26.2109L52.332 31.6602Z" fill="white"/>
<path d="M128.042 77.3473C128.042 88.9883 109.64 83.6707 86.9401 83.6707C64.2402 83.6707 49 85.0362 49 73.3952C49 61.7542 64.2402 51 86.9401 51C109.64 51 128.042 65.7063 128.042 77.3473Z" fill="#D00038"/>
<path d="M120.138 49.503C120.138 48.7027 120.787 48.0539 121.587 48.0539H121.877C122.677 48.0539 123.326 48.7027 123.326 49.503V49.503C123.326 50.3033 122.677 50.9521 121.877 50.9521H121.587C120.787 50.9521 120.138 50.3033 120.138 49.503V49.503Z" fill="#030303"/>
<path d="M106 49.4491C106 48.6488 106.649 48 107.449 48H107.739C108.539 48 109.188 48.6488 109.188 49.4491V49.4491C109.188 50.2494 108.539 50.8982 107.739 50.8982H107.449C106.649 50.8982 106 50.2494 106 49.4491V49.4491Z" fill="#030303"/>
<path d="M66 62.991C66 62.1907 66.6488 61.5419 67.4491 61.5419H67.7389C68.5392 61.5419 69.188 62.1907 69.188 62.991V62.991C69.188 63.7913 68.5392 64.4401 67.7389 64.4401H67.4491C66.6488 64.4401 66 63.7913 66 62.991V62.991Z" fill="#030303"/>
<path d="M76.9281 56.1377C76.9281 55.3374 77.5769 54.6886 78.3772 54.6886H78.6671C79.4674 54.6886 80.1162 55.3374 80.1162 56.1377V56.1377C80.1162 56.938 79.4674 57.5868 78.6671 57.5868H78.3772C77.5769 57.5868 76.9281 56.938 76.9281 56.1377V56.1377Z" fill="#030303"/>
<path d="M70.6311 71.1557C70.6311 70.3554 71.2799 69.7066 72.0802 69.7066H72.3701C73.1704 69.7066 73.8192 70.3554 73.8192 71.1557V71.1557C73.8192 71.956 73.1704 72.6048 72.3701 72.6048H72.0802C71.2799 72.6048 70.6311 71.956 70.6311 71.1557V71.1557Z" fill="#030303"/>
<path d="M81.6707 61.9341C81.6707 61.1338 82.3194 60.485 83.1198 60.485H83.4096C84.2099 60.485 84.8587 61.1338 84.8587 61.9341V61.9341C84.8587 62.7345 84.2099 63.3833 83.4096 63.3833H83.1198C82.3194 63.3833 81.6707 62.7345 81.6707 61.9341V61.9341Z" fill="#030303"/>
<path d="M97.479 60.8803C97.479 60.0799 98.1278 59.4312 98.9281 59.4312H99.218C100.018 59.4312 100.667 60.0799 100.667 60.8803V60.8803C100.667 61.6806 100.018 62.3294 99.218 62.3294H98.9281C98.1278 62.3294 97.479 61.6806 97.479 60.8803V60.8803Z" fill="#030303"/>
<path d="M56.9042 71.9461C56.9042 69.9817 58.4967 68.3892 60.4611 68.3892H61.1725C63.1369 68.3892 64.7293 69.9817 64.7293 71.9461V71.9461C64.7293 73.9105 63.1369 75.503 61.1725 75.503H60.4611C58.4967 75.503 56.9042 73.9105 56.9042 71.9461V71.9461Z" fill="#030303"/>
<path d="M86.9401 57.1916C86.9401 55.2272 88.5326 53.6347 90.497 53.6347H91.2084C93.1728 53.6347 94.7653 55.2272 94.7653 57.1916V57.1916C94.7653 59.156 93.1728 60.7485 91.2084 60.7485H90.497C88.5326 60.7485 86.9401 59.156 86.9401 57.1916V57.1916Z" fill="#030303"/>
<path d="M80 71.0988C80 69.1344 81.5925 67.5419 83.5569 67.5419H84.2683C86.2327 67.5419 87.8251 69.1344 87.8251 71.0988V71.0988C87.8251 73.0632 86.2327 74.6557 84.2683 74.6557H83.5569C81.5925 74.6557 80 73.0632 80 71.0988V71.0988Z" fill="#030303"/>
<g filter="url(#filter0_i_119:5)">
<path d="M136.156 72.7126C136.156 81.2978 126.719 81.9341 115.078 81.9341C103.437 81.9341 94 81.2978 94 72.7126C94 64.1274 103.437 57.1677 115.078 57.1677C126.719 57.1677 136.156 64.1274 136.156 72.7126Z" fill="#090808"/>
</g>
<path d="M106.647 65.8623C106.647 64.4071 107.826 63.2275 109.281 63.2275H109.808C111.263 63.2275 112.443 64.4071 112.443 65.8623V65.8623C112.443 67.3174 111.263 68.497 109.808 68.497H109.281C107.826 68.497 106.647 67.3174 106.647 65.8623V65.8623Z" fill="white"/>
<path d="M118.24 65.8623C118.24 64.4071 119.419 63.2275 120.874 63.2275H121.401C122.856 63.2275 124.036 64.4071 124.036 65.8623C124.036 67.3174 122.856 68.497 121.401 68.497H120.874C119.419 68.497 118.24 67.3174 118.24 65.8623Z" fill="white"/>
<path d="M108.228 66.7844C108.228 65.9841 108.876 65.3353 109.677 65.3353H109.966C110.767 65.3353 111.416 65.9841 111.416 66.7844V66.7844C111.416 67.5847 110.767 68.2335 109.966 68.2335H109.677C108.876 68.2335 108.228 67.5847 108.228 66.7844V66.7844Z" fill="#030303"/>
<path d="M119.293 66.7844C119.293 65.9841 119.942 65.3353 120.743 65.3353H121.032C121.833 65.3353 122.481 65.9841 122.481 66.7844V66.7844C122.481 67.5847 121.833 68.2335 121.032 68.2335H120.743C119.942 68.2335 119.293 67.5847 119.293 66.7844V66.7844Z" fill="#030303"/>
<path d="M109.079 60.2896C103.905 51.5728 105.673 49.2068 107.204 49.1135" stroke="black" stroke-width="0.526946"/>
<path d="M118.555 60.6815C124.239 52.2881 122.615 49.8211 121.093 49.6368" stroke="black" stroke-width="0.526946"/>
<path d="M104.281 62.9096C104.16 62.8294 103.996 62.8628 103.916 62.9842C103.836 63.1056 103.869 63.2691 103.991 63.3493L104.281 62.9096ZM105.78 64.5313C105.901 64.6115 106.065 64.5781 106.145 64.4567C106.225 64.3353 106.192 64.1719 106.07 64.0916L105.78 64.5313ZM103.991 63.3493L105.78 64.5313L106.07 64.0916L104.281 62.9096L103.991 63.3493Z" fill="white"/>
<path d="M103.567 64.1893C103.429 64.1438 103.28 64.2191 103.235 64.3573C103.189 64.4955 103.265 64.6444 103.403 64.6899L103.567 64.1893ZM105.44 65.3595C105.578 65.4049 105.727 65.3297 105.772 65.1914C105.818 65.0532 105.743 64.9043 105.604 64.8589L105.44 65.3595ZM103.403 64.6899L105.44 65.3595L105.604 64.8589L103.567 64.1893L103.403 64.6899Z" fill="white"/>
<path d="M126.734 62.9096C126.855 62.8294 127.018 62.8628 127.099 62.9842C127.179 63.1056 127.145 63.2691 127.024 63.3493L126.734 62.9096ZM125.235 64.5313C125.114 64.6115 124.95 64.5781 124.87 64.4567C124.79 64.3353 124.823 64.1719 124.945 64.0916L125.235 64.5313ZM127.024 63.3493L125.235 64.5313L124.945 64.0916L126.734 62.9096L127.024 63.3493Z" fill="white"/>
<path d="M127.448 64.1893C127.586 64.1438 127.735 64.2191 127.78 64.3573C127.826 64.4955 127.75 64.6444 127.612 64.6899L127.448 64.1893ZM125.575 65.3595C125.437 65.4049 125.288 65.3297 125.242 65.1914C125.197 65.0532 125.272 64.9043 125.41 64.8589L125.575 65.3595ZM127.612 64.6899L125.575 65.3595L125.41 64.8589L127.448 64.1893L127.612 64.6899Z" fill="white"/>
<defs>
<filter id="filter0_i_119:5" x="94" y="57.1677" width="42.1557" height="26.8743" filterUnits="userSpaceOnUse" color-interpolation-filters="sRGB">
<feFlood flood-opacity="0" result="BackgroundImageFix"/>
<feBlend mode="normal" in="SourceGraphic" in2="BackgroundImageFix" result="shape"/>
<feColorMatrix in="SourceAlpha" type="matrix" values="0 0 0 0 0 0 0 0 0 0 0 0 0 0 0 0 0 0 127 0" result="hardAlpha"/>
<feOffset dy="2.10778"/>
<feGaussianBlur stdDeviation="1.05389"/>
<feComposite in2="hardAlpha" operator="arithmetic" k2="-1" k3="1"/>
<feColorMatrix type="matrix" values="0 0 0 0 0 0 0 0 0 0 0 0 0 0 0 0 0 0 0.25 0"/>
<feBlend mode="normal" in2="shape" result="effect1_innerShadow_119:5"/>
</filter>
</defs>
</svg>
